# This file uses centimeters as units for non-parametric coordinates.

mtllib Stern.mtl
g default
v 0.016658 -0.660528 -0.064498
v 0.009883 -0.660528 -0.068295
v 0.000621 -0.660528 -0.069688
v -0.008641 -0.660528 -0.068295
v -0.015416 -0.660528 -0.064498
v -0.017903 -0.660528 -0.059308
v -0.015416 -0.660528 -0.054118
v -0.008641 -0.660528 -0.050319
v 0.000621 -0.660528 -0.048928
v 0.009883 -0.660528 -0.050319
v 0.016658 -0.660528 -0.054118
v 0.019145 -0.660528 -0.059308
v 0.016658 1.149942 -0.064498
v 0.009883 1.149942 -0.068295
v 0.000621 1.149942 -0.069688
v -0.008641 1.149942 -0.068295
v -0.015416 1.149942 -0.064498
v -0.017903 1.149942 -0.059308
v -0.015416 1.149942 -0.054118
v -0.008641 1.149942 -0.050319
v 0.000621 1.149942 -0.048928
v 0.009883 1.149942 -0.050319
v 0.016658 1.149942 -0.054118
v 0.019145 1.149942 -0.059308
v 0.000621 -0.660528 -0.059308
v 0.000621 1.149942 -0.059308
v -0.454259 -0.616942 -0.038953
v -0.279943 -1.149944 -0.038953
v 0.279933 -1.149945 -0.038951
v 0.454265 -0.616942 -0.038953
v -0.000005 -0.284811 -0.038953
v -0.000005 -0.762800 0.069688
v -0.141484 -0.583731 -0.042972
v -0.228917 -0.852835 -0.042127
v -0.000005 -1.019148 -0.041776
v 0.228908 -0.852835 -0.042129
v 0.141475 -0.583731 -0.042972
v -0.000005 -0.764372 -0.040677
vt 0.025364 0.001992
vt 0.028199 0.001992
vt 0.028199 0.990738
vt 0.025364 0.990738
vt 0.031033 0.001992
vt 0.031033 0.990738
vt 0.061285 0.001992
vt 0.064120 0.001992
vt 0.064120 0.990738
vt 0.061285 0.990738
vt 0.066954 0.001992
vt 0.066954 0.990738
vt 0.431012 0.506898
vt 0.433085 0.503198
vt 0.435920 0.511956
vt 0.435920 0.501839
vt 0.430251 0.511956
vt 0.438754 0.503198
vt 0.431012 0.517014
vt 0.440829 0.506898
vt 0.433085 0.520714
vt 0.441589 0.511956
vt 0.435920 0.522072
vt 0.440829 0.517014
vt 0.438754 0.520714
vt 0.421763 0.503198
vt 0.423837 0.506898
vt 0.418929 0.511956
vt 0.424597 0.511956
vt 0.418929 0.501839
vt 0.423837 0.517014
vt 0.416094 0.503198
vt 0.421763 0.520714
vt 0.414019 0.506898
vt 0.418929 0.522072
vt 0.413260 0.511956
vt 0.416094 0.520714
vt 0.414019 0.517014
vt 0.019352 0.990738
vt 0.015652 0.990738
vt 0.015652 0.001992
vt 0.019352 0.001992
vt 0.010594 0.990738
vt 0.010594 0.001992
vt 0.005536 0.990738
vt 0.005536 0.001992
vt 0.001836 0.990738
vt 0.001836 0.001992
vt 0.037937 0.001992
vt 0.041636 0.001992
vt 0.041636 0.990738
vt 0.037937 0.990738
vt 0.046695 0.001992
vt 0.046695 0.990738
vt 0.051753 0.001992
vt 0.051753 0.990738
vt 0.055453 0.001992
vt 0.055453 0.990738
vt 0.546330 0.097199
vt 0.335759 0.250081
vt 0.384070 0.125065
vt 0.474899 0.250081
vt 0.255243 0.001992
vt 0.546330 0.402962
vt 0.237105 0.172815
vt 0.384070 0.375096
vt 0.073858 0.250081
vt 0.255243 0.498161
vt 0.237105 0.327346
vt 0.658673 0.749928
vt 0.609502 0.874943
vt 0.447243 0.902809
vt 0.738330 0.998008
vt 0.518674 0.749928
vt 0.756467 0.827193
vt 0.447242 0.597046
vt 0.919715 0.749928
vt 0.609502 0.624913
vt 0.756467 0.672662
vt 0.738330 0.501839
vn 0.488955 0.000000 -0.872309
vn 0.488955 0.000000 -0.872309
vn 0.488955 0.000000 -0.872309
vn 0.488955 0.000000 -0.872309
vn 0.148659 0.000000 -0.988889
vn 0.148659 0.000000 -0.988889
vn 0.148659 0.000000 -0.988889
vn 0.148659 0.000000 -0.988889
vn -0.148659 0.000000 -0.988889
vn -0.148659 0.000000 -0.988889
vn -0.148659 0.000000 -0.988889
vn -0.148659 0.000000 -0.988889
vn -0.488955 0.000000 -0.872309
vn -0.488955 0.000000 -0.872309
vn -0.488955 0.000000 -0.872309
vn -0.488955 0.000000 -0.872309
vn -0.901792 0.000000 -0.432171
vn -0.901792 0.000000 -0.432171
vn -0.901792 0.000000 -0.432171
vn -0.901792 0.000000 -0.432171
vn -0.901792 0.000000 0.432171
vn -0.901792 0.000000 0.432171
vn -0.901792 0.000000 0.432171
vn -0.901792 0.000000 0.432171
vn -0.489142 0.000000 0.872204
vn -0.489142 0.000000 0.872204
vn -0.489142 0.000000 0.872204
vn -0.489142 0.000000 0.872204
vn -0.148460 0.000000 0.988919
vn -0.148460 0.000000 0.988919
vn -0.148460 0.000000 0.988919
vn -0.148460 0.000000 0.988919
vn 0.148460 0.000000 0.988919
vn 0.148460 0.000000 0.988919
vn 0.148460 0.000000 0.988919
vn 0.148460 0.000000 0.988919
vn 0.489142 0.000000 0.872204
vn 0.489142 0.000000 0.872204
vn 0.489142 0.000000 0.872204
vn 0.489142 0.000000 0.872204
vn 0.901792 0.000000 0.432171
vn 0.901792 0.000000 0.432171
vn 0.901792 0.000000 0.432171
vn 0.901792 0.000000 0.432171
vn 0.901792 0.000000 -0.432171
vn 0.901792 0.000000 -0.432171
vn 0.901792 0.000000 -0.432171
vn 0.901792 0.000000 -0.432171
vn 0.000000 -1.000000 -0.000006
vn 0.000000 -1.000000 0.000010
vn 0.000000 -1.000000 0.000000
vn 0.000000 -1.000000 0.000000
vn 0.000000 -1.000000 -0.000013
vn 0.000000 -1.000000 0.000007
vn 0.000000 -1.000000 0.000000
vn 0.000000 -1.000000 -0.000010
vn 0.000000 -1.000000 0.000006
vn 0.000000 -1.000000 0.000000
vn 0.000000 -1.000000 0.000013
vn 0.000000 -1.000000 -0.000007
vn 0.000000 -1.000000 0.000000
vn 0.000000 1.000000 0.000000
vn 0.000000 1.000000 0.000000
vn 0.000000 1.000000 0.000000
vn 0.000000 1.000000 0.000000
vn 0.000000 1.000000 -0.000013
vn 0.000000 1.000000 -0.000006
vn 0.000000 1.000000 0.000000
vn 0.000000 1.000000 0.000000
vn 0.000000 1.000000 0.000000
vn 0.000000 1.000000 0.000000
vn 0.000000 1.000000 0.000013
vn 0.000000 1.000000 0.000006
vn 0.000000 1.000000 0.000000
vn 0.001695 -0.003246 -0.999993
vn -0.000001 -0.000693 -1.000000
vn -0.005815 0.001361 -0.999982
vn -0.387473 -0.145412 0.910341
vn -0.396606 -0.121637 0.909895
vn -0.465287 0.089315 0.880642
vn -0.000004 -0.398750 0.917059
vn -0.000004 -0.398750 0.917060
vn -0.191929 -0.391337 0.900010
vn 0.387475 -0.145421 0.910338
vn 0.396608 -0.121647 0.909892
vn 0.314743 -0.312750 0.896172
vn 0.272243 0.349047 0.896688
vn 0.256857 0.361065 0.896469
vn 0.444323 0.198555 0.873586
vn -0.272250 0.349041 0.896688
vn -0.256862 0.361061 0.896469
vn -0.042836 0.507561 0.860550
vn -0.444323 0.198555 0.873586
vn -0.314748 -0.312727 0.896179
vn 0.191922 -0.391338 0.900012
vn 0.465296 0.089328 0.880636
vn 0.042834 0.507562 0.860550
vn -0.003895 -0.000306 -0.999992
vn 0.005550 -0.008355 -0.999950
vn 0.000000 0.003595 -0.999994
vn -0.005550 -0.008355 -0.999950
vn 0.003893 -0.000300 -0.999992
vn 0.000003 0.004312 -0.999991
vn -0.001698 -0.003239 -0.999993
vn 0.005806 0.001362 -0.999982
s off
g Star Assets
usemtl initialShadingGroup
f 1/39/1 2/40/2 14/41/3 13/42/4
f 2/40/5 3/43/6 15/44/7 14/41/8
f 3/43/9 4/45/10 16/46/11 15/44/12
f 4/45/13 5/47/14 17/48/15 16/46/16
f 5/1/17 6/2/18 18/3/19 17/4/20
f 6/2/21 7/5/22 19/6/23 18/3/24
f 7/49/25 8/50/26 20/51/27 19/52/28
f 8/50/29 9/53/30 21/54/31 20/51/32
f 9/53/33 10/55/34 22/56/35 21/54/36
f 10/55/37 11/57/38 23/58/39 22/56/40
f 11/7/41 12/8/42 24/9/43 23/10/44
f 12/8/45 1/11/46 13/12/47 24/9/48
s 1
f 2/13/49 1/14/50 25/15/51
f 3/17/52 2/13/49 25/15/51
f 4/19/53 3/17/52 25/15/51
f 5/21/54 4/19/53 25/15/51
f 6/23/55 5/21/54 25/15/51
f 7/25/56 6/23/55 25/15/51
f 8/24/57 7/25/56 25/15/51
f 9/22/58 8/24/57 25/15/51
f 10/20/59 9/22/58 25/15/51
f 11/18/60 10/20/59 25/15/51
f 12/16/61 11/18/60 25/15/51
f 1/14/50 12/16/61 25/15/51
s 2
f 13/26/62 14/27/63 26/28/64
f 14/27/63 15/29/65 26/28/64
f 15/29/65 16/31/66 26/28/64
f 16/31/66 17/33/67 26/28/64
f 17/33/67 18/35/68 26/28/64
f 18/35/68 19/37/69 26/28/64
f 19/37/69 20/38/70 26/28/64
f 20/38/70 21/36/71 26/28/64
f 21/36/71 22/34/72 26/28/64
f 22/34/72 23/32/73 26/28/64
f 23/32/73 24/30/74 26/28/64
f 24/30/74 13/26/62 26/28/64
s 3
f 29/59/75 38/60/76 36/61/77
s 4
f 32/70/78 34/71/79 28/72/80
s 5
f 32/70/81 35/74/82 29/76/83
s 6
f 32/70/84 36/78/85 30/80/86
s 7
f 32/70/87 37/79/88 31/77/89
s 8
f 32/70/90 33/75/91 27/73/92
f 31/77/93 33/75/91 32/70/90
s 4
f 27/73/94 34/71/79 32/70/78
s 5
f 28/72/95 35/74/82 32/70/81
s 6
f 29/76/96 36/78/85 32/70/84
s 7
f 30/80/97 37/79/88 32/70/87
s 3
f 27/68/98 33/69/99 38/60/76
f 38/60/76 33/69/99 31/67/100
f 38/60/76 31/67/100 37/65/101
f 38/60/76 37/65/101 30/63/102
f 38/60/76 30/63/102 36/61/77
f 35/62/103 38/60/76 29/59/75
f 28/64/104 38/60/76 35/62/103
f 34/66/105 38/60/76 28/64/104
f 27/68/98 38/60/76 34/66/105
